<svg xmlns="http://www.w3.org/2000/svg" width="1400" height="720" viewBox="0 0 1400 720"><title>HELLO SEA A logo</title><g transform="translate(0 50) scale(0.5492957746478874)"><path fill="#074C5B" fill-rule="evenodd" d="M563.00,1050.35 C561.62,1050.14 555.33,1049.27 549.00,1048.40 C527.01,1045.39 510.81,1038.22 503.61,1028.30 C498.92,1021.85 497.66,1016.77 498.19,1006.58 C498.83,994.48 503.13,986.01 513.83,975.79 C533.64,956.86 564.42,947.12 604.73,947.03 C618.38,947.00 619.01,946.91 620.37,944.75 C622.72,941.04 626.63,927.21 634.79,893.74 L642.53,861.98 L630.98,850.18 C620.09,839.07 610.58,826.79 596.09,805.17 C581.08,782.77 565.22,772.94 544.28,773.06 C532.32,773.13 527.62,774.49 527.21,778.00 C527.05,779.38 525.56,789.50 523.89,800.50 C513.07,871.75 494.92,942.71 478.19,979.09 C457.72,1023.60 427.69,1038.31 395.20,1019.74 C370.58,1005.67 341.61,968.18 316.20,917.50 C278.38,842.07 251.59,744.19 242.98,650.00 C242.35,643.12 241.65,636.60 241.42,635.50 C241.19,634.40 238.27,631.70 234.92,629.50 C221.26,620.54 208.87,603.34 205.96,589.31 C204.16,580.65 205.23,564.09 208.15,555.44 C212.69,541.95 223.06,528.34 235.62,519.38 C239.37,516.70 242.00,514.09 242.00,513.04 C242.00,512.06 242.69,504.56 243.54,496.38 C249.30,440.57 261.24,386.22 277.12,343.50 C300.67,280.14 334.06,224.85 368.61,192.00 C402.12,160.14 431.61,148.67 457.49,157.44 C468.28,161.10 476.18,166.08 484.26,174.34 C499.95,190.39 512.77,216.88 522.36,253.05 C529.78,281.03 535.83,317.77 539.12,354.75 C539.77,362.04 540.57,367.97 540.90,367.93 C541.23,367.89 544.28,362.15 547.67,355.18 C561.28,327.24 574.75,308.07 594.92,287.95 C623.18,259.75 655.42,241.74 695.92,231.53 C715.78,226.53 723.30,225.64 746.50,225.57 C770.95,225.49 778.40,226.35 798.50,231.53 C834.47,240.80 865.89,260.06 890.63,288.00 C906.98,306.46 923.22,335.04 936.08,368.00 C945.75,392.78 950.93,400.35 961.50,405.19 C965.73,407.12 968.05,407.46 976.50,407.36 C984.80,407.27 988.05,406.73 995.64,404.19 C1028.13,393.31 1054.12,372.35 1074.31,340.74 C1086.30,321.96 1094.07,300.29 1097.42,276.24 C1102.52,239.67 1114.67,215.69 1136.34,199.40 C1150.03,189.12 1164.00,184.43 1178.48,185.28 C1197.84,186.41 1212.12,195.66 1218.21,211.00 C1219.97,215.42 1220.40,218.56 1220.40,227.00 C1220.41,242.99 1216.34,252.56 1201.72,270.92 C1183.59,293.69 1176.50,310.32 1167.47,351.29 C1160.41,383.29 1156.23,399.21 1149.29,420.50 C1136.90,458.54 1122.11,490.97 1105.75,516.00 L1100.84,523.50 L1101.93,529.06 C1103.85,538.84 1104.36,556.07 1103.04,566.59 C1098.74,600.90 1084.07,629.40 1055.49,659.00 C1047.40,667.38 1044.00,672.28 1044.00,675.58 C1044.00,678.77 1047.99,683.71 1054.13,688.10 C1065.73,696.39 1081.61,709.75 1087.44,716.12 C1108.01,738.61 1119.08,767.62 1119.11,799.15 C1119.14,832.52 1107.54,861.63 1085.18,884.29 C1060.24,909.54 1026.31,922.05 986.50,920.69 C954.93,919.60 930.89,911.66 898.99,891.77 C890.92,886.75 879.51,882.00 875.48,882.00 C873.08,882.00 873.00,882.23 873.02,888.75 C873.06,903.66 877.27,926.65 881.47,934.94 C885.48,942.86 885.32,942.82 907.79,942.27 C939.60,941.51 961.77,945.72 984.00,956.76 C993.63,961.53 996.73,963.69 1003.05,969.98 C1011.18,978.09 1014.00,982.86 1016.57,992.96 C1018.36,999.96 1018.03,1006.98 1015.59,1014.07 C1009.32,1032.26 985.46,1043.81 945.46,1048.02 C926.25,1050.04 895.08,1050.91 877.07,1049.93 C834.32,1047.59 811.96,1042.05 799.39,1030.68 C789.31,1021.58 787.09,1009.95 790.95,986.50 C793.23,972.66 795.45,944.14 796.57,914.25 C797.19,897.73 797.10,896.00 795.62,896.00 C794.72,896.00 789.60,896.77 784.24,897.70 C776.97,898.98 768.80,899.40 752.00,899.39 C731.27,899.36 723.55,898.68 712.06,895.85 C710.15,895.38 708.61,903.67 706.53,925.70 C704.18,950.51 704.02,979.94 706.19,987.00 C709.45,997.60 710.29,1005.34 709.01,1012.92 C705.38,1034.47 684.73,1044.28 632.11,1049.48 C618.19,1050.85 570.35,1051.46 563.00,1050.35 Z M1026.25,256.34 C1025.56,256.06 1020.43,250.58 1014.86,244.17 C1009.29,237.75 994.33,221.69 981.62,208.49 C955.08,180.92 952.88,177.74 952.22,166.04 C951.48,152.69 957.61,142.37 970.11,135.92 C976.58,132.58 988.64,132.10 996.00,134.89 C1018.30,143.34 1030.70,170.83 1037.93,227.81 C1040.60,248.88 1040.58,250.16 1037.41,253.92 C1035.35,256.37 1034.07,256.98 1031.16,256.92 C1029.15,256.88 1026.94,256.61 1026.25,256.34 Z M1081.09,219.04 C1076.34,217.88 1074.97,214.34 1072.90,197.91 C1070.42,178.25 1068.90,169.26 1063.77,144.00 C1056.77,109.57 1058.00,96.87 1069.43,85.43 C1076.79,78.08 1083.61,75.67 1095.50,76.23 C1105.98,76.72 1111.36,78.85 1117.83,85.06 C1131.11,97.83 1132.46,119.03 1121.95,149.52 C1115.48,168.29 1105.85,190.01 1096.90,206.01 C1090.37,217.69 1086.97,220.49 1081.09,219.04 Z"/>
<path fill="#FAF5E9" fill-rule="evenodd" d="M416.40,997.58 C410.69,995.80 403.35,990.53 402.74,987.79 C389.49,927.54 378.14,838.74 372.55,751.50 C367.40,671.21 368.03,552.85 374.02,475.00 C380.45,391.55 390.89,319.27 406.03,253.50 C410.90,232.34 416.28,211.16 419.66,199.88 C422.03,191.93 422.52,191.12 425.87,189.52 C427.87,188.56 432.16,187.53 435.42,187.24 C440.68,186.75 441.26,186.88 440.68,188.38 C437.38,197.00 425.70,245.15 419.67,275.00 C398.69,378.92 388.84,481.88 387.33,613.00 C386.37,696.30 389.67,765.49 398.57,849.00 C403.83,898.31 414.45,966.42 420.50,989.65 C422.15,996.00 422.40,999.04 421.25,998.93 C420.84,998.90 418.65,998.29 416.40,997.58 Z M980.00,878.37 C959.70,875.84 940.76,868.97 918.00,855.90 C897.08,843.88 886.09,840.55 867.50,840.59 C855.23,840.62 852.97,840.97 827.00,846.85 C792.39,854.69 779.02,856.91 761.81,857.68 C716.91,859.71 678.84,842.46 651.05,807.48 C647.73,803.31 641.45,794.63 637.09,788.20 C623.17,767.65 612.30,756.34 597.00,746.45 C578.58,734.55 560.63,728.63 542.75,728.56 C536.24,728.53 533.00,728.15 533.00,727.40 C533.00,726.78 533.66,719.58 534.46,711.39 C540.11,653.75 543.08,583.25 543.12,506.25 L543.15,453.00 L547.54,447.61 C556.44,436.69 566.44,419.80 580.20,392.50 C587.96,377.10 596.71,360.61 599.65,355.85 C617.66,326.71 642.28,304.28 673.11,288.90 C720.89,265.08 769.40,264.46 813.93,287.10 C828.55,294.53 839.98,303.11 852.16,315.80 C868.69,333.02 879.78,351.69 895.36,388.50 C905.68,412.91 910.27,420.49 921.40,431.54 C934.52,444.57 943.95,449.05 966.60,452.99 C979.44,455.22 991.53,458.81 999.50,462.75 C1021.21,473.48 1041.11,494.30 1049.95,515.53 C1056.05,530.19 1057.37,536.96 1057.35,553.50 C1057.33,566.93 1057.05,569.44 1054.62,577.44 C1048.86,596.39 1039.35,611.07 1018.62,633.01 C1011.62,640.43 1004.32,648.85 1002.41,651.72 C995.76,661.71 993.87,671.01 996.43,681.07 C999.67,693.74 1007.78,703.52 1029.08,720.44 C1044.05,732.34 1058.29,746.61 1062.83,754.25 C1076.96,778.06 1079.71,802.57 1071.07,827.76 C1067.04,839.49 1062.74,846.23 1052.94,856.13 C1045.48,863.67 1043.05,865.42 1033.94,869.81 C1028.20,872.58 1020.12,875.61 1016.00,876.54 C1008.73,878.19 987.30,879.28 980.00,878.37 Z M622.50,597.10 C631.03,593.14 636.20,584.73 636.20,574.82 C636.20,557.15 617.16,545.71 601.32,553.85 C592.85,558.21 588.56,565.46 588.53,575.50 C588.50,581.33 588.95,583.27 591.20,587.09 C593.91,591.70 598.92,596.23 603.20,597.95 C607.29,599.59 618.17,599.11 622.50,597.10 Z M776.30,571.51 C805.40,566.43 829.98,547.94 841.73,522.28 C843.76,517.85 844.15,515.68 843.83,510.62 C843.33,502.84 840.69,498.81 834.53,496.46 C825.28,492.92 818.55,496.68 812.02,509.03 C797.37,536.77 769.67,546.87 738.04,536.01 C727.66,532.45 725.04,532.32 719.38,535.06 C714.76,537.29 711.00,543.26 711.00,548.35 C711.00,565.07 744.69,577.02 776.30,571.51 Z M706.01,515.14 C726.93,509.16 743.62,492.96 746.92,475.44 C748.67,466.15 745.89,459.95 739.04,457.89 C734.30,456.47 730.56,458.02 719.59,465.93 C705.46,476.14 695.78,480.78 676.76,486.49 C667.00,489.42 662.67,492.43 661.02,497.45 C659.67,501.52 661.29,506.16 665.37,509.92 C672.47,516.47 692.40,519.03 706.01,515.14 Z M832.06,458.71 C841.37,455.54 849.34,450.43 855.75,443.54 C868.33,429.99 870.76,414.72 861.26,408.85 C856.38,405.84 851.37,406.79 843.03,412.34 C829.20,421.54 816.73,426.84 802.65,429.50 C792.57,431.41 788.55,434.65 788.55,440.85 C788.55,455.54 812.52,465.37 832.06,458.71 Z"/>
<path fill="#EF8064" fill-rule="evenodd" d="M570.50,1024.36 C547.49,1021.74 539.47,1019.72 534.05,1015.19 C521.43,1004.64 543.80,986.22 578.16,978.86 C592.39,975.81 615.27,975.77 629.00,978.76 C646.27,982.52 658.51,988.16 668.07,996.75 C685.62,1012.53 672.34,1020.47 622.50,1023.99 C609.48,1024.91 577.34,1025.14 570.50,1024.36 Z M872.50,1021.97 C844.59,1019.50 832.00,1015.03 832.00,1007.56 C832.00,1003.76 837.72,996.20 844.21,991.42 C862.23,978.13 884.35,971.70 912.00,971.69 C941.63,971.68 969.43,980.42 980.70,993.30 C992.07,1006.29 979.35,1016.59 946.50,1021.03 C935.97,1022.45 885.23,1023.09 872.50,1021.97 Z M421.28,993.73 C420.71,990.85 419.07,982.96 417.64,976.20 C406.19,922.09 395.24,832.27 390.54,754.00 C384.92,660.26 386.22,551.76 394.09,459.00 C401.56,370.83 413.62,294.20 430.94,224.81 C439.09,192.18 440.71,187.00 442.79,187.02 C445.27,187.05 452.47,190.49 456.52,193.58 C475.93,208.39 495.14,265.68 503.94,335.00 C509.09,375.65 510.90,402.81 511.93,455.00 C514.79,599.22 503.97,743.87 481.87,857.00 C469.14,922.15 453.63,970.03 439.29,988.43 C435.60,993.18 429.68,997.26 424.91,998.36 C422.47,998.92 422.27,998.66 421.28,993.73 Z M400.32,987.51 C399.15,986.69 394.63,981.85 390.29,976.76 C333.22,909.89 287.77,778.27 277.10,649.00 C274.61,618.85 274.58,613.74 276.86,606.23 C280.76,593.38 288.97,584.69 305.00,576.42 C313.87,571.85 322.61,563.58 325.98,556.57 C329.45,549.35 329.90,538.36 327.03,530.75 C321.28,515.53 303.30,505.08 282.74,505.02 L276.98,505.00 L277.56,499.25 C285.23,423.23 300.87,364.84 329.52,305.26 C346.81,269.31 368.57,237.35 390.98,215.00 C400.26,205.74 420.56,190.22 421.78,191.45 C422.02,191.68 421.28,194.71 420.14,198.19 C413.33,219.03 400.00,278.06 393.08,318.00 C377.37,408.71 370.31,493.57 369.30,604.00 C368.31,712.82 373.38,797.76 386.55,893.00 C391.57,929.26 399.49,975.52 402.61,986.75 C403.35,989.41 403.13,989.48 400.32,987.51 Z"/>
<path fill="#FF2D7A" fill-rule="evenodd" d="M603.62,597.58 C598.68,595.75 593.28,590.62 590.90,585.50 C588.67,580.70 588.39,570.40 590.35,565.72 C596.99,549.87 618.97,546.80 630.38,560.13 C642.91,574.77 632.93,597.78 613.64,598.72 C610.03,598.89 605.90,598.43 603.62,597.58 Z M1026.25,256.34 C1025.56,256.06 1020.43,250.58 1014.86,244.17 C1009.29,237.75 994.33,221.69 981.62,208.49 C955.08,180.92 952.88,177.74 952.22,166.04 C951.48,152.69 957.61,142.37 970.11,135.92 C976.58,132.58 988.64,132.10 996.00,134.89 C1018.30,143.34 1030.70,170.83 1037.93,227.81 C1040.60,248.88 1040.58,250.16 1037.41,253.92 C1035.35,256.37 1034.07,256.98 1031.16,256.92 C1029.15,256.88 1026.94,256.61 1026.25,256.34 Z M1081.09,219.04 C1076.34,217.88 1074.97,214.34 1072.90,197.91 C1070.42,178.25 1068.90,169.26 1063.77,144.00 C1056.77,109.57 1058.00,96.87 1069.43,85.43 C1076.79,78.08 1083.61,75.67 1095.50,76.23 C1105.98,76.72 1111.36,78.85 1117.83,85.06 C1131.11,97.83 1132.46,119.03 1121.95,149.52 C1115.48,168.29 1105.85,190.01 1096.90,206.01 C1090.37,217.69 1086.97,220.49 1081.09,219.04 Z"/></g><g transform="translate(700 135) scale(0.4166666666666667)"><path fill="#074C5B" fill-rule="evenodd" d="M602.66,917.51 C597.33,915.47 591.37,910.90 587.91,906.19 C578.91,893.96 580.15,875.17 590.68,863.91 C596.74,857.43 603.44,854.63 613.01,854.57 C619.23,854.53 621.47,855.00 626.17,857.29 C636.81,862.50 642.97,872.06 643.79,884.62 C644.66,898.15 638.79,909.53 627.87,915.47 C623.46,917.87 621.12,918.44 614.51,918.68 C609.22,918.88 605.20,918.48 602.66,917.51 Z M621.00,901.75 C630.86,895.02 630.33,876.93 620.11,871.18 C615.37,868.52 611.80,868.45 606.31,870.95 C600.65,873.51 598.00,878.71 598.00,887.21 C598.01,894.52 600.15,898.90 605.24,902.01 C609.77,904.76 616.75,904.65 621.00,901.75 Z M916.23,916.59 C907.73,912.53 904.28,909.31 900.76,902.15 C897.81,896.15 897.50,894.68 897.51,886.51 C897.53,876.11 899.39,870.90 905.48,864.16 C911.25,857.77 918.65,854.63 927.89,854.64 C936.89,854.66 942.56,856.80 949.03,862.64 C955.53,868.50 959.00,876.67 959.00,886.14 C959.00,896.78 956.69,903.36 950.92,909.16 C944.08,916.03 939.05,918.27 929.50,918.72 C922.55,919.05 920.81,918.77 916.23,916.59 Z M937.58,900.94 C941.49,897.28 943.28,893.12 943.33,887.53 C943.44,876.11 937.96,869.50 928.40,869.50 C922.49,869.50 918.99,871.49 915.25,876.99 C913.48,879.60 913.00,881.69 913.00,886.90 C913.01,894.53 915.05,898.81 920.24,902.06 C924.86,904.97 933.90,904.38 937.58,900.94 Z M1046.43,918.04 C1045.29,917.57 1039.92,912.18 1034.50,906.05 C1024.98,895.28 1024.59,894.97 1022.83,896.73 C1021.53,898.02 1020.82,900.80 1020.35,906.43 C1019.55,915.86 1018.00,918.00 1011.99,918.00 C1008.53,918.00 1007.69,917.54 1005.97,914.75 C1004.06,911.66 1003.98,910.24 1004.44,885.50 L1004.93,859.50 L1007.52,857.25 C1015.25,850.54 1022.48,859.66 1020.65,873.83 L1020.04,878.50 L1031.50,866.75 C1038.49,859.59 1043.73,855.00 1044.93,855.00 C1050.27,855.00 1054.89,860.41 1053.28,864.78 C1052.93,865.73 1048.89,870.50 1044.31,875.39 L1035.98,884.28 L1040.24,889.07 C1056.19,907.02 1057.00,908.07 1057.00,911.03 C1057.00,913.84 1054.07,918.00 1052.08,918.00 C1051.58,918.00 1050.56,918.20 1049.83,918.44 C1049.10,918.68 1047.57,918.50 1046.43,918.04 Z M501.23,917.33 C497.57,915.86 497.00,911.68 497.00,886.60 C497.00,860.61 497.39,858.05 501.66,856.11 C505.38,854.42 506.90,854.74 510.08,857.92 L513.00,860.85 L513.00,881.92 L513.00,903.00 L522.85,903.00 C528.27,903.00 534.08,903.48 535.76,904.06 C541.38,906.02 542.24,914.20 537.11,916.94 C535.13,918.00 503.75,918.34 501.23,917.33 Z M689.07,915.37 C687.93,913.92 687.00,912.42 687.00,912.05 C687.00,911.67 689.05,899.93 691.55,885.96 C696.24,859.71 696.91,857.76 701.89,855.86 C705.35,854.53 710.74,856.59 712.44,859.88 C713.21,861.37 715.95,868.42 718.52,875.55 C721.10,882.67 723.54,889.11 723.95,889.85 C724.41,890.68 726.90,885.04 730.44,875.17 C733.60,866.36 736.99,858.42 737.97,857.53 C741.01,854.78 746.12,854.52 749.23,856.96 C752.15,859.26 753.16,862.15 755.43,874.58 C762.53,913.55 762.43,912.48 759.19,916.25 C757.54,918.18 752.91,918.56 750.01,917.01 C747.72,915.78 746.78,912.75 743.89,897.25 L741.61,885.01 L736.36,899.75 C731.02,914.76 728.94,918.00 724.61,918.00 C720.13,918.00 718.41,915.35 712.92,900.04 C709.94,891.75 707.41,885.32 707.28,885.74 C707.16,886.16 705.91,892.80 704.52,900.50 C701.72,915.96 700.54,918.00 694.46,918.00 C692.07,918.00 690.57,917.27 689.07,915.37 Z M812.23,917.33 C808.59,915.86 808.00,911.66 808.00,887.00 C808.00,860.21 808.42,858.10 814.12,856.11 C817.93,854.78 833.93,854.68 839.42,855.96 C847.54,857.84 853.00,864.39 853.00,872.25 C853.00,877.29 850.58,884.00 848.77,884.00 C848.22,884.00 849.36,885.76 851.31,887.92 C859.57,897.07 855.99,911.76 844.31,916.64 C841.13,917.97 815.21,918.53 812.23,917.33 Z M838.61,902.48 C840.44,900.65 840.94,899.36 840.46,897.73 C839.38,894.10 837.02,893.00 830.31,893.00 L824.00,893.00 L824.00,899.00 L824.00,905.00 L830.05,905.00 C835.17,905.00 836.47,904.62 838.61,902.48 Z M835.78,878.44 C838.23,876.73 838.79,872.19 836.80,870.20 C836.14,869.54 832.99,869.00 829.80,869.00 L824.00,869.00 L824.00,874.50 L824.00,880.00 L828.78,880.00 C831.48,880.00 834.52,879.32 835.78,878.44 Z M468.59,827.90 C423.22,824.17 387.28,810.89 370.29,791.59 C360.58,780.56 355.39,764.70 357.78,753.33 C361.50,735.58 373.81,722.84 392.44,717.46 C396.96,716.16 400.64,715.88 407.94,716.28 C418.20,716.84 425.19,718.87 439.36,725.37 C453.43,731.84 464.03,735.00 471.62,734.99 C480.70,734.99 485.19,733.63 489.47,729.59 C492.56,726.68 493.00,725.66 493.00,721.46 C493.00,717.08 492.61,716.28 488.54,712.39 C481.90,706.03 474.90,704.12 430.00,696.48 C407.71,692.68 392.14,686.01 382.26,676.02 C371.93,665.58 366.98,653.58 367.02,639.04 C367.06,619.00 375.03,601.82 391.63,585.97 C417.42,561.35 463.02,543.52 519.61,535.94 C540.76,533.10 568.35,533.56 580.00,536.95 C601.82,543.29 614.23,557.47 614.18,576.00 C614.14,592.62 604.58,607.19 588.59,615.01 C575.93,621.20 568.11,621.35 547.27,615.79 C532.26,611.78 530.81,611.58 517.00,611.54 C503.93,611.50 502.01,611.73 497.51,613.80 C490.29,617.13 488.00,619.61 488.00,624.11 C488.00,627.07 488.58,628.27 490.75,629.78 C495.07,632.78 499.10,633.82 518.95,637.04 C542.14,640.80 551.37,642.98 563.73,647.61 C595.63,659.55 614.91,679.51 622.13,708.02 C623.96,715.26 624.19,718.42 623.78,729.99 C623.34,742.12 622.93,744.55 619.77,753.76 C614.91,767.98 608.45,778.20 597.49,789.07 C583.71,802.71 568.87,811.59 547.46,818.97 C523.00,827.41 497.55,830.29 468.59,827.90 Z M1102.70,825.46 C1071.99,819.35 1049.25,799.43 1027.98,760.00 C1021.33,747.67 1016.41,741.59 1011.31,739.40 C1005.80,737.03 995.08,736.54 988.76,738.38 C980.47,740.79 978.11,743.74 972.58,758.65 C964.36,780.81 957.03,792.61 945.66,802.00 C920.38,822.88 883.42,823.33 868.46,802.95 C863.75,796.53 861.98,791.08 861.32,781.00 C860.63,770.34 862.47,759.18 872.03,716.34 C875.93,698.83 879.53,682.48 880.02,680.00 C880.51,677.52 883.20,665.15 886.00,652.50 C888.80,639.85 892.81,621.62 894.92,612.00 C900.45,586.82 906.37,567.01 911.09,557.94 C923.46,534.16 947.29,524.03 987.99,525.25 C1012.29,525.98 1028.70,530.35 1046.34,540.81 C1056.55,546.85 1070.72,560.75 1078.64,572.50 C1086.10,583.57 1098.54,605.78 1105.53,620.49 C1108.40,626.55 1118.29,646.80 1127.50,665.50 C1174.60,761.09 1177.54,768.17 1176.85,784.27 C1176.39,794.98 1173.03,802.16 1164.56,810.50 C1150.44,824.40 1126.49,830.19 1102.70,825.46 Z M1011.67,677.06 C1017.65,674.35 1019.51,670.99 1019.46,663.04 C1019.37,650.55 1012.93,636.42 1005.61,632.66 C1002.04,630.82 1001.38,630.78 997.65,632.08 C990.01,634.75 983.61,647.07 982.38,661.50 C981.72,669.28 983.81,673.51 989.91,676.70 C995.60,679.67 1005.56,679.84 1011.67,677.06 Z M690.00,823.35 C667.52,819.98 655.39,813.35 646.01,799.33 C633.50,780.62 631.08,756.24 630.70,645.50 C630.49,581.33 630.77,576.02 635.04,564.63 C642.57,544.50 659.87,532.24 697.21,520.56 C729.90,510.34 759.12,505.64 790.00,505.64 C807.80,505.64 811.51,505.91 818.15,507.75 C828.51,510.61 834.60,513.91 840.20,519.67 C847.19,526.86 850.31,534.46 850.80,545.50 C851.48,560.88 847.26,572.45 837.27,582.60 C827.61,592.42 818.74,595.45 795.06,597.02 C759.42,599.39 739.37,604.81 733.97,613.54 C730.90,618.52 731.30,625.19 734.92,629.23 C737.72,632.36 738.14,632.49 744.67,632.33 C749.55,632.21 755.08,631.01 764.00,628.15 C794.29,618.41 805.08,617.47 817.00,623.53 C829.22,629.74 835.09,643.68 832.04,659.19 C830.45,667.27 828.25,671.47 822.07,678.23 C811.86,689.40 798.37,694.15 770.09,696.51 C745.51,698.57 739.23,700.38 733.67,706.99 C729.71,711.69 729.20,716.49 732.10,721.87 C735.84,728.81 739.38,730.24 751.50,729.67 C762.24,729.17 766.94,727.91 795.50,717.91 C809.38,713.05 811.21,712.65 820.00,712.58 C828.47,712.51 830.18,712.82 835.79,715.41 C843.69,719.05 850.98,726.76 854.10,734.75 C857.22,742.76 857.24,757.89 854.14,766.42 C843.82,794.82 813.68,809.02 738.50,820.91 C723.05,823.36 698.31,824.60 690.00,823.35 Z M304.23,573.52 C291.06,569.80 282.68,561.65 277.90,547.92 C276.09,542.70 275.68,539.44 275.74,530.50 C275.81,520.60 276.33,517.55 280.95,500.00 C286.39,479.32 290.77,458.43 289.85,457.52 C289.55,457.22 287.78,457.61 285.90,458.40 C284.03,459.18 278.87,460.35 274.44,461.00 C249.95,464.58 230.29,449.53 226.67,424.42 C223.02,399.09 238.40,373.12 265.03,359.64 C269.72,357.27 276.81,354.53 280.78,353.55 C289.19,351.49 288.70,353.07 286.48,335.18 C284.60,319.99 282.20,309.54 276.99,293.97 C272.01,279.07 270.00,269.75 270.01,261.68 C270.08,236.10 288.59,212.89 316.50,203.40 C323.19,201.12 326.31,200.66 335.50,200.59 C345.96,200.50 346.84,200.66 353.50,203.81 C361.72,207.69 366.29,211.76 369.52,218.07 C374.56,227.93 375.00,232.11 375.05,270.64 C375.12,313.99 376.20,339.75 378.10,342.78 C378.84,343.97 380.72,345.47 382.27,346.11 C387.75,348.38 406.02,345.13 411.36,340.93 C412.73,339.85 414.38,337.38 415.02,335.45 C416.39,331.28 416.29,330.45 408.05,275.50 C400.60,225.81 400.79,227.56 401.98,219.11 C405.33,195.55 430.51,174.43 459.50,170.89 C485.52,167.70 507.39,184.59 511.21,210.81 C512.19,217.53 512.10,223.18 510.67,242.74 C507.12,291.54 509.19,367.72 515.02,402.00 C517.41,416.07 519.94,425.04 528.33,449.20 C532.99,462.62 535.02,470.06 535.54,475.56 C538.17,503.62 521.32,523.91 489.91,530.52 C466.91,535.36 450.19,532.08 438.55,520.46 C427.33,509.27 423.54,494.45 422.45,457.50 C421.67,431.28 421.37,429.22 417.84,425.69 C414.97,422.82 414.65,422.74 407.69,423.27 C398.10,424.00 387.22,427.72 384.72,431.13 C382.26,434.47 382.30,439.73 384.92,463.57 C388.64,497.31 389.08,504.46 388.02,513.79 C386.25,529.47 382.28,538.15 371.69,549.54 C354.90,567.60 323.20,578.87 304.23,573.52 Z M1228.81,535.92 C1200.80,531.81 1175.74,517.95 1150.45,492.59 C1132.00,474.08 1115.41,451.62 1098.30,422.00 C1067.16,368.08 1051.37,312.06 1053.35,262.50 C1054.33,237.82 1058.07,220.32 1065.96,203.38 C1075.64,182.63 1091.62,166.13 1107.56,160.45 C1114.94,157.81 1131.02,157.36 1140.70,159.51 C1166.36,165.21 1196.63,182.19 1223.16,205.77 C1238.59,219.48 1251.59,234.09 1265.21,253.00 C1295.12,294.55 1315.12,343.68 1323.14,395.31 C1326.04,414.01 1326.29,443.83 1323.66,457.85 C1320.18,476.41 1313.56,492.85 1304.43,505.65 C1288.13,528.49 1258.64,540.30 1228.81,535.92 Z M1219.85,401.57 C1232.31,395.14 1223.65,353.28 1203.46,322.31 C1187.36,297.61 1168.55,289.10 1162.36,303.72 C1155.43,320.09 1173.60,368.09 1195.27,390.67 C1206.08,401.92 1213.13,405.05 1219.85,401.57 Z M924.50,512.28 C912.79,511.71 890.28,508.83 874.50,505.89 C838.72,499.22 810.66,490.59 795.00,481.44 C787.29,476.93 777.48,467.43 773.50,460.62 C763.79,443.98 758.25,412.13 753.81,347.50 C752.09,322.57 752.12,232.82 753.85,213.50 C756.23,186.91 759.13,174.31 765.76,161.66 C772.69,148.44 786.46,137.98 801.61,134.42 C811.03,132.21 827.14,132.90 835.84,135.90 C860.78,144.49 877.00,168.75 877.00,197.48 C877.00,201.49 875.65,215.97 873.99,229.64 C865.34,301.13 862.89,355.38 867.39,375.33 C871.53,393.69 881.18,404.27 897.61,408.48 C900.85,409.31 908.47,410.64 914.54,411.44 C937.76,414.50 950.64,418.34 961.18,425.33 C982.08,439.21 990.45,466.05 980.59,487.59 C977.53,494.27 969.60,502.82 963.26,506.25 C954.63,510.93 940.84,513.07 924.50,512.28 Z M592.50,503.46 C576.98,500.09 563.44,490.64 555.87,477.90 C543.99,457.90 541.57,442.65 536.53,356.00 C535.17,332.62 533.50,304.73 532.81,294.00 C531.06,266.75 531.10,223.11 532.88,216.00 C536.29,202.38 543.33,190.47 553.42,181.25 C571.83,164.42 606.68,149.70 650.00,140.45 C671.29,135.90 692.45,134.68 702.66,137.40 C726.19,143.66 740.03,162.16 739.99,187.30 C739.96,203.85 735.16,217.12 725.69,226.83 C716.42,236.34 708.36,239.80 689.44,242.40 C653.42,247.35 638.96,252.99 633.12,264.36 C628.53,273.29 630.52,283.12 637.61,286.48 C643.53,289.29 649.32,288.41 668.00,281.86 C683.47,276.43 686.43,275.71 693.50,275.61 C707.21,275.42 715.89,281.23 722.40,294.95 C725.31,301.10 725.50,302.21 725.50,313.00 C725.50,324.14 725.39,324.74 721.91,332.00 C717.39,341.45 710.17,349.39 701.44,354.51 C691.24,360.49 685.23,362.64 669.14,366.06 C646.20,370.94 638.92,376.17 638.24,388.29 C637.82,395.71 639.85,399.75 645.28,402.33 C653.77,406.36 666.52,403.42 691.37,391.70 L706.50,384.57 L715.50,384.54 C723.38,384.50 725.21,384.85 730.20,387.30 C739.22,391.73 748.88,404.10 751.45,414.50 C757.87,440.47 748.18,463.62 725.17,477.28 C711.50,485.40 697.68,490.30 669.47,497.05 C640.70,503.92 607.40,506.70 592.50,503.46 Z M1031.84,487.08 C1028.72,486.09 1022.96,483.13 1019.04,480.52 C1010.58,474.90 1004.95,467.47 996.39,450.62 C983.31,424.89 975.94,418.35 946.60,406.45 C933.00,400.93 924.97,393.86 919.11,382.25 C910.55,365.30 905.24,300.82 906.25,226.00 C906.76,188.15 907.21,184.66 913.18,172.09 C917.73,162.49 929.95,150.51 940.19,145.60 C963.56,134.40 991.74,138.11 1009.10,154.68 C1015.50,160.78 1021.03,170.43 1023.05,179.00 C1024.89,186.82 1024.42,205.19 1021.97,221.00 C1013.40,276.39 1011.58,294.00 1012.27,315.00 C1012.86,333.10 1014.67,340.28 1021.06,349.85 C1025.53,356.54 1029.76,359.93 1044.29,368.40 C1049.67,371.54 1057.22,376.81 1061.06,380.12 C1076.29,393.23 1086.77,413.32 1089.21,434.12 C1092.30,460.48 1081.90,479.69 1060.59,486.98 C1052.94,489.60 1039.85,489.64 1031.84,487.08 Z"/></g></svg>